<svg xmlns="http://www.w3.org/2000/svg" width="840" height="380" viewBox="0 0 840 380">
<rect x="0.00" y="0.00" width="840.00" height="380.00" rx="0.00" fill="#ffffff" stroke="#ffffff" stroke-width="0.0"/>
<line x1="30.00" y1="70.00" x2="740.00" y2="70.00" stroke="#6466f1" stroke-width="2.0"/>
<text x="748.00" y="74.00" fill="#6466f1" font-size="12" text-anchor="start" font-weight="bold" font-family="trebuchet ms, verdana, arial, sans-serif">main</text>
<line x1="30.00" y1="130.00" x2="740.00" y2="130.00" stroke="#22c55e" stroke-width="2.0"/>
<text x="748.00" y="134.00" fill="#22c55e" font-size="12" text-anchor="start" font-weight="bold" font-family="trebuchet ms, verdana, arial, sans-serif">develop</text>
<line x1="30.00" y1="190.00" x2="740.00" y2="190.00" stroke="#f59e0b" stroke-width="2.0"/>
<text x="748.00" y="194.00" fill="#f59e0b" font-size="12" text-anchor="start" font-weight="bold" font-family="trebuchet ms, verdana, arial, sans-serif">feature/payments</text>
<line x1="30.00" y1="250.00" x2="740.00" y2="250.00" stroke="#ef4444" stroke-width="2.0"/>
<text x="748.00" y="254.00" fill="#ef4444" font-size="12" text-anchor="start" font-weight="bold" font-family="trebuchet ms, verdana, arial, sans-serif">feature/search</text>
<line x1="30.00" y1="310.00" x2="740.00" y2="310.00" stroke="#06b6d4" stroke-width="2.0"/>
<text x="748.00" y="314.00" fill="#06b6d4" font-size="12" text-anchor="start" font-weight="bold" font-family="trebuchet ms, verdana, arial, sans-serif">hotfix/login</text>
<line x1="220.00" y1="130.00" x2="300.00" y2="130.00" stroke="#22c55e" stroke-width="2.0"/>
<line x1="380.00" y1="190.00" x2="460.00" y2="190.00" stroke="#f59e0b" stroke-width="2.0"/>
<line x1="460.00" y1="190.00" x2="540.00" y2="190.00" stroke="#f59e0b" stroke-width="2.0"/>
<line x1="540.00" y1="190.00" x2="380.00" y2="130.00" stroke="#333333" stroke-width="1.5"/>
<line x1="300.00" y1="130.00" x2="380.00" y2="130.00" stroke="#22c55e" stroke-width="2.0"/>
<line x1="460.00" y1="250.00" x2="540.00" y2="250.00" stroke="#ef4444" stroke-width="2.0"/>
<line x1="380.00" y1="130.00" x2="460.00" y2="130.00" stroke="#22c55e" stroke-width="2.0"/>
<line x1="540.00" y1="250.00" x2="540.00" y2="130.00" stroke="#333333" stroke-width="1.5"/>
<line x1="460.00" y1="130.00" x2="540.00" y2="130.00" stroke="#22c55e" stroke-width="2.0"/>
<line x1="540.00" y1="130.00" x2="220.00" y2="70.00" stroke="#333333" stroke-width="1.5"/>
<line x1="140.00" y1="70.00" x2="220.00" y2="70.00" stroke="#6466f1" stroke-width="2.0"/>
<line x1="300.00" y1="310.00" x2="300.00" y2="70.00" stroke="#333333" stroke-width="1.5"/>
<line x1="220.00" y1="70.00" x2="300.00" y2="70.00" stroke="#6466f1" stroke-width="2.0"/>
<line x1="300.00" y1="70.00" x2="620.00" y2="130.00" stroke="#333333" stroke-width="1.5"/>
<line x1="540.00" y1="130.00" x2="620.00" y2="130.00" stroke="#22c55e" stroke-width="2.0"/>
<line x1="620.00" y1="130.00" x2="700.00" y2="130.00" stroke="#22c55e" stroke-width="2.0"/>
<line x1="300.00" y1="310.00" x2="700.00" y2="130.00" stroke="#888888" stroke-width="1.5" stroke-dasharray="5,3"/>
<circle cx="140.00" cy="70.00" r="12.00" fill="#ffffff" stroke="#6466f1" stroke-width="2.5"/>
<rect x="115.50" y="38.00" width="49.00" height="16.00" rx="3.00" fill="#fef3c7" stroke="#d97706" stroke-width="1.0"/>
<text x="140.00" y="50.00" fill="#92400e" font-size="10" text-anchor="middle" font-weight="bold" font-family="trebuchet ms, verdana, arial, sans-serif">v0.1.0</text>
<circle cx="220.00" cy="130.00" r="12.00" fill="#ffffff" stroke="#22c55e" stroke-width="2.5"/>
<circle cx="300.00" cy="130.00" r="12.00" fill="#ffffff" stroke="#22c55e" stroke-width="2.5"/>
<circle cx="380.00" cy="190.00" r="12.00" fill="#ffffff" stroke="#f59e0b" stroke-width="2.5"/>
<circle cx="460.00" cy="190.00" r="12.00" fill="#ffffff" stroke="#f59e0b" stroke-width="2.5"/>
<circle cx="540.00" cy="190.00" r="12.00" fill="#f59e0b" stroke="#f59e0b" stroke-width="2.5"/>
<circle cx="380.00" cy="130.00" r="12.00" fill="#ffffff" stroke="#22c55e" stroke-width="2.5"/>
<rect x="329.50" y="98.00" width="101.00" height="16.00" rx="3.00" fill="#fef3c7" stroke="#d97706" stroke-width="1.0"/>
<text x="380.00" y="110.00" fill="#92400e" font-size="10" text-anchor="middle" font-weight="bold" font-family="trebuchet ms, verdana, arial, sans-serif">payments-ready</text>
<circle cx="460.00" cy="250.00" r="12.00" fill="#ffffff" stroke="#ef4444" stroke-width="2.5"/>
<circle cx="540.00" cy="250.00" r="12.00" fill="#ffffff" stroke="#ef4444" stroke-width="2.5"/>
<circle cx="460.00" cy="130.00" r="12.00" fill="#ffffff" stroke="#22c55e" stroke-width="2.5"/>
<circle cx="540.00" cy="130.00" r="12.00" fill="#ffffff" stroke="#22c55e" stroke-width="2.5"/>
<circle cx="220.00" cy="70.00" r="12.00" fill="#ffffff" stroke="#6466f1" stroke-width="2.5"/>
<rect x="195.50" y="38.00" width="49.00" height="16.00" rx="3.00" fill="#fef3c7" stroke="#d97706" stroke-width="1.0"/>
<text x="220.00" y="50.00" fill="#92400e" font-size="10" text-anchor="middle" font-weight="bold" font-family="trebuchet ms, verdana, arial, sans-serif">v1.0.0</text>
<circle cx="300.00" cy="310.00" r="12.00" fill="#ffffff" stroke="#06b6d4" stroke-width="2.5"/>
<circle cx="300.00" cy="70.00" r="12.00" fill="#ffffff" stroke="#6466f1" stroke-width="2.5"/>
<rect x="275.50" y="38.00" width="49.00" height="16.00" rx="3.00" fill="#fef3c7" stroke="#d97706" stroke-width="1.0"/>
<text x="300.00" y="50.00" fill="#92400e" font-size="10" text-anchor="middle" font-weight="bold" font-family="trebuchet ms, verdana, arial, sans-serif">v1.0.1</text>
<circle cx="620.00" cy="130.00" r="12.00" fill="#ffffff" stroke="#22c55e" stroke-width="2.5"/>
<circle cx="700.00" cy="130.00" r="12.00" fill="#ffffff" stroke="#22c55e" stroke-width="2.5"/>
</svg>
