<svg xmlns="http://www.w3.org/2000/svg" width="440" height="406" viewBox="0 0 440 406">
<rect x="0.00" y="0.00" width="440.00" height="406.00" rx="0.00" fill="#ffffff" stroke="#ffffff" stroke-width="0.0"/>
<text x="220.00" y="43.00" fill="#333333" font-size="16" text-anchor="middle" font-weight="bold" font-family="trebuchet ms, verdana, arial, sans-serif">SaaS Platform — 2024 KPIs by Quarter</text>
<line x1="60.00" y1="356.00" x2="420.00" y2="356.00" stroke="#dddddd" stroke-width="1.0" stroke-dasharray="4,3"/>
<text x="54.00" y="360.00" fill="#333333" font-size="12" text-anchor="end" font-weight="normal" font-family="trebuchet ms, verdana, arial, sans-serif">0</text>
<line x1="60.00" y1="296.00" x2="420.00" y2="296.00" stroke="#dddddd" stroke-width="1.0" stroke-dasharray="4,3"/>
<text x="54.00" y="300.00" fill="#333333" font-size="12" text-anchor="end" font-weight="normal" font-family="trebuchet ms, verdana, arial, sans-serif">100</text>
<line x1="60.00" y1="236.00" x2="420.00" y2="236.00" stroke="#dddddd" stroke-width="1.0" stroke-dasharray="4,3"/>
<text x="54.00" y="240.00" fill="#333333" font-size="12" text-anchor="end" font-weight="normal" font-family="trebuchet ms, verdana, arial, sans-serif">200</text>
<line x1="60.00" y1="176.00" x2="420.00" y2="176.00" stroke="#dddddd" stroke-width="1.0" stroke-dasharray="4,3"/>
<text x="54.00" y="180.00" fill="#333333" font-size="12" text-anchor="end" font-weight="normal" font-family="trebuchet ms, verdana, arial, sans-serif">300</text>
<line x1="60.00" y1="116.00" x2="420.00" y2="116.00" stroke="#dddddd" stroke-width="1.0" stroke-dasharray="4,3"/>
<text x="54.00" y="120.00" fill="#333333" font-size="12" text-anchor="end" font-weight="normal" font-family="trebuchet ms, verdana, arial, sans-serif">400</text>
<line x1="60.00" y1="56.00" x2="420.00" y2="56.00" stroke="#dddddd" stroke-width="1.0" stroke-dasharray="4,3"/>
<text x="54.00" y="60.00" fill="#333333" font-size="12" text-anchor="end" font-weight="normal" font-family="trebuchet ms, verdana, arial, sans-serif">500</text>
<line x1="60.00" y1="56.00" x2="60.00" y2="356.00" stroke="#333333" stroke-width="1.5"/>
<line x1="60.00" y1="356.00" x2="420.00" y2="356.00" stroke="#333333" stroke-width="1.5"/>
<line x1="105.00" y1="356.00" x2="105.00" y2="360.00" stroke="#333333" stroke-width="1.0"/>
<text x="105.00" y="380.00" fill="#333333" font-size="12" text-anchor="middle" font-weight="normal" font-family="trebuchet ms, verdana, arial, sans-serif">Q1 Jan-Mar</text>
<line x1="195.00" y1="356.00" x2="195.00" y2="360.00" stroke="#333333" stroke-width="1.0"/>
<text x="195.00" y="380.00" fill="#333333" font-size="12" text-anchor="middle" font-weight="normal" font-family="trebuchet ms, verdana, arial, sans-serif">Q2 Apr-Jun</text>
<line x1="285.00" y1="356.00" x2="285.00" y2="360.00" stroke="#333333" stroke-width="1.0"/>
<text x="285.00" y="380.00" fill="#333333" font-size="12" text-anchor="middle" font-weight="normal" font-family="trebuchet ms, verdana, arial, sans-serif">Q3 Jul-Sep</text>
<line x1="375.00" y1="356.00" x2="375.00" y2="360.00" stroke="#333333" stroke-width="1.0"/>
<text x="375.00" y="380.00" fill="#333333" font-size="12" text-anchor="middle" font-weight="normal" font-family="trebuchet ms, verdana, arial, sans-serif">Q4 Oct-Dec</text>
<rect x="68.00" y="284.00" width="74.00" height="72.00" rx="2.00" fill="#12b886" stroke="none" stroke-width="0.0"/>
<rect x="158.00" y="245.00" width="74.00" height="111.00" rx="2.00" fill="#12b886" stroke="none" stroke-width="0.0"/>
<rect x="248.00" y="212.00" width="74.00" height="144.00" rx="2.00" fill="#12b886" stroke="none" stroke-width="0.0"/>
<rect x="338.00" y="170.00" width="74.00" height="186.00" rx="2.00" fill="#12b886" stroke="none" stroke-width="0.0"/>
<circle cx="105.00" cy="299.00" r="3.50" fill="#228be6" stroke="#ffffff" stroke-width="1.5"/>
<circle cx="195.00" cy="260.00" r="3.50" fill="#228be6" stroke="#ffffff" stroke-width="1.5"/>
<circle cx="285.00" cy="230.00" r="3.50" fill="#228be6" stroke="#ffffff" stroke-width="1.5"/>
<circle cx="375.00" cy="182.00" r="3.50" fill="#228be6" stroke="#ffffff" stroke-width="1.5"/>
<path d="M 105.0,299.0 L 195.0,260.0 L 285.0,230.0 L 375.0,182.0" fill="none" stroke="#228be6" stroke-width="2.0"/>
</svg>
